HIERARCHY
ROOT Hips
{
 OFFSET 0.000000 0.000000 0.000000
 CHANNELS 6 Xposition Yposition Zposition Yrotation Xrotation Zrotation
 JOINT Chest
 {
  OFFSET 0.000000 9.585900 0.002600
  CHANNELS 3 Yrotation Xrotation Zrotation
  JOINT Chest2
  {
   OFFSET 0.000000 9.601200 -0.005300
   CHANNELS 3 Yrotation Xrotation Zrotation
   JOINT Chest3
   {
    OFFSET 0.000000 9.561800 0.000000
    CHANNELS 3 Yrotation Xrotation Zrotation
    JOINT Chest4
    {
     OFFSET 0.000000 9.552100 0.000000
     CHANNELS 3 Yrotation Xrotation Zrotation
     JOINT Neck
     {
      OFFSET 0.000000 14.453000 0.000000
      CHANNELS 3 Yrotation Xrotation Zrotation
      JOINT Head
      {
       OFFSET 0.000000 8.936500 -0.011300
       CHANNELS 3 Yrotation Xrotation Zrotation
       End Site
       {
        OFFSET 0.000000 17.073600 -0.006000
       }
      }
     }
     JOINT RightCollar
     {
      OFFSET -2.921100 9.558500 0.000000
      CHANNELS 3 Yrotation Xrotation Zrotation
      JOINT RightShoulder
      {
       OFFSET -13.519700 0.000000 0.000000
       CHANNELS 3 Yrotation Xrotation Zrotation
       JOINT RightElbow
       {
        OFFSET 0.000000 -29.696600 0.000000
        CHANNELS 3 Yrotation Xrotation Zrotation
        JOINT RightWrist
        {
         OFFSET 0.000000 -24.004700 0.000000
         CHANNELS 3 Yrotation Xrotation Zrotation
         End Site
         {
          OFFSET 0.000000 -17.728500 0.000000
         }
        }
       }
      }
     }
     JOINT LeftCollar
     {
      OFFSET 2.921100 9.558500 0.000000
      CHANNELS 3 Yrotation Xrotation Zrotation
      JOINT LeftShoulder
      {
       OFFSET 13.519700 0.000000 0.000000
       CHANNELS 3 Yrotation Xrotation Zrotation
       JOINT LeftElbow
       {
        OFFSET 0.000000 -29.696600 0.000000
        CHANNELS 3 Yrotation Xrotation Zrotation
        JOINT LeftWrist
        {
         OFFSET 0.000000 -24.004700 0.000000
         CHANNELS 3 Yrotation Xrotation Zrotation
         End Site
         {
          OFFSET 0.000000 -17.728500 0.000000
         }
        }
       }
      }
     }
    }
   }
  }
 }
 JOINT RightHip
 {
  OFFSET -7.771700 -0.012900 -0.001300
  CHANNELS 3 Yrotation Xrotation Zrotation
  JOINT RightKnee
  {
   OFFSET 0.000000 -40.869800 0.001200
   CHANNELS 3 Yrotation Xrotation Zrotation
   JOINT RightAnkle
   {
    OFFSET 0.000000 -39.717900 0.002100
    CHANNELS 3 Yrotation Xrotation Zrotation
    JOINT RightToe
    {
     OFFSET 0.000000 -4.965400 11.033500
     CHANNELS 3 Yrotation Xrotation Zrotation
     End Site
     {
      OFFSET 0.000000 -1.423100 5.872300
     }
    }
   }
  }
 }
 JOINT LeftHip
 {
  OFFSET 7.771700 -0.012900 -0.001300
  CHANNELS 3 Yrotation Xrotation Zrotation
  JOINT LeftKnee
  {
   OFFSET 0.000000 -40.869800 0.001200
   CHANNELS 3 Yrotation Xrotation Zrotation
   JOINT LeftAnkle
   {
    OFFSET 0.000000 -39.717900 0.002100
    CHANNELS 3 Yrotation Xrotation Zrotation
    JOINT LeftToe
    {
     OFFSET 0.000000 -4.965400 11.033500
     CHANNELS 3 Yrotation Xrotation Zrotation
     End Site
     {
      OFFSET 0.000000 -1.423100 5.872300
     }
    }
   }
  }
 }
}
MOTION
Frames: 12
Frame Time: 0.008333
-55.889685 61.930244 14.959166 175.181077 -49.610147 -1.012005 4.769575 26.215657 2.130805 0.708157 4.435151 0.226291 1.141615 7.024682 0.344174 3.759337 21.457489 1.672188 3.917416 14.007693 3.089957 6.230618 -9.933327 4.089505 3.508195 10.095827 4.644249 -33.952609 -23.720547 -10.201981 150.076040 -65.022361 -159.583354 15.222160 -0.760560 -41.144041 -9.884609 5.073851 -0.057592 23.585744 -24.588232 12.135752 -96.757060 -69.935972 113.501000 3.813830 -12.077454 47.974859 0.269801 -17.716634 -2.545619 -3.886610 64.054812 -7.223836 0.780649 -7.597585 7.849800 0.043816 -0.129395 0.031200 -3.800986 -15.335483 6.627354 25.994946 75.654737 26.957269 0.705213 -9.730342 -5.103770 0.007754 0.140750 0.009145
-55.888268 61.930165 14.958040 175.188777 -49.613635 -1.028404 4.767044 26.220758 2.152227 0.699766 4.447291 0.262824 1.137546 7.034346 0.351499 3.751455 21.493747 1.756282 3.916046 13.911430 2.914743 6.238445 -10.002463 3.926758 3.386217 10.056708 4.464059 -33.103338 -23.412455 -10.691751 151.732451 -65.932737 -160.972799 15.563746 0.579803 -37.055064 -9.892012 4.899120 -0.090523 22.830336 -24.309684 12.835221 -94.524249 -72.074692 110.096047 4.358828 -10.789510 45.942128 0.262902 -17.716351 -2.533437 -3.882334 64.064557 -7.222957 0.789712 -7.619382 7.855171 0.030729 -0.115642 0.024599 -3.813233 -15.329354 6.642556 25.961276 75.660264 26.914421 0.714258 -9.713214 -5.097363 0.003035 0.121413 0.006960
-55.891547 61.931058 14.955384 175.175145 -49.628365 -1.001340 4.755959 26.244864 2.171496 0.699818 4.455952 0.269508 1.132232 7.041818 0.357389 3.743585 21.519268 1.802099 3.900535 13.857766 2.798387 6.272627 -10.098484 3.747207 3.314576 10.024388 4.339237 -32.427176 -23.141976 -11.137018 154.042086 -66.763689 -162.934838 16.005744 2.058221 -32.465117 -9.912372 4.730352 -0.091315 21.909870 -23.938920 13.653277 -91.895324 -74.341957 106.365013 4.951589 -9.511634 43.872390 0.280870 -17.706702 -2.550167 -3.893419 64.076775 -7.235920 0.791159 -7.620485 7.858860 0.032235 -0.121490 0.022636 -3.801302 -15.313969 6.626101 25.950901 75.661025 26.898731 0.710386 -9.709960 -5.095293 0.004507 0.115790 0.007553
-55.893869 61.930565 14.953890 175.172780 -49.634338 -0.991070 4.745133 26.259908 2.202655 0.693960 4.471442 0.288525 1.124576 7.069574 0.396971 3.715254 21.518733 1.775600 3.881303 13.816617 2.703354 6.311315 -10.201222 3.570225 3.175604 9.998766 4.229447 -31.833201 -22.917504 -11.535677 156.975628 -67.483987 -165.420553 16.534306 3.671359 -27.409611 -9.933851 4.574276 -0.065379 20.930396 -23.513852 14.525527 -88.811009 -76.779745 102.196336 5.504303 -8.257277 41.772015 0.285907 -17.704013 -2.558524 -3.904007 64.085286 -7.249045 0.798316 -7.623728 7.859646 0.028864 -0.123870 0.021410 -3.799393 -15.308358 6.620187 25.944707 75.664320 26.885663 0.707501 -9.712705 -5.092768 0.004201 0.115458 0.006540
-55.899613 61.930055 14.952038 175.157589 -49.641529 -0.952722 4.731967 26.281036 2.213841 0.689728 4.483043 0.296145 1.117900 7.089772 0.420010 3.695342 21.528486 1.781228 3.877282 13.761539 2.605538 6.321100 -10.292180 3.405078 3.036140 9.948812 4.134010 -31.400176 -22.734548 -11.904568 160.395499 -68.082855 -168.274268 17.141519 5.415858 -21.885145 -9.954590 4.431422 -0.027193 19.994278 -23.073175 15.397058 -84.935267 -79.399323 97.216927 5.939193 -7.039031 39.573705 0.304434 -17.699914 -2.585515 -3.914804 64.092428 -7.262833 0.795966 -7.604653 7.851392 0.038597 -0.145908 0.030140 -3.784939 -15.304022 6.597608 25.940402 75.666004 26.875382 0.689305 -9.728522 -5.098553 0.020462 0.130432 0.015750
-55.902828 61.929592 14.950525 175.158433 -49.647991 -0.944342 4.701762 26.322213 2.288585 0.693805 4.476364 0.253305 1.112674 7.102383 0.428270 3.678832 21.544927 1.803671 3.869717 13.708219 2.511329 6.320557 -10.383875 3.240480 2.914037 9.871062 4.042837 -31.146588 -22.593464 -12.236156 164.143917 -68.573722 -171.333310 17.836251 7.269145 -15.853410 -9.973169 4.304052 0.023146 19.157614 -22.639740 16.231871 -79.185901 -82.116421 90.329869 6.251692 -5.884006 37.212610 0.306667 -17.695300 -2.594932 -3.919364 64.098746 -7.269805 0.797566 -7.608528 7.851888 0.039434 -0.146412 0.030363 -3.784728 -15.297720 6.592717 25.919545 75.668074 26.846708 0.684255 -9.728109 -5.094790 0.027236 0.130187 0.017014
-55.907039 61.929545 14.948758 175.148850 -49.655658 -0.924602 4.694660 26.340390 2.295747 0.683406 4.496541 0.282280 1.107371 7.114863 0.436768 3.662113 21.561132 1.826769 3.854848 13.649029 2.430279 6.318179 -10.465190 3.068151 2.780029 9.778620 3.944005 -31.039617 -22.511644 -12.520419 168.077575 -68.981126 -174.452852 18.634847 9.176255 -9.302096 -9.989739 4.188107 0.082355 18.417604 -22.222211 17.016899 -68.436233 -84.747615 78.440171 6.487412 -4.816938 34.619995 0.316537 -17.688832 -2.608535 -3.918485 64.103226 -7.271481 0.797051 -7.614428 7.849062 0.040734 -0.143568 0.033810 -3.772072 -15.286946 6.579598 25.926234 75.660493 26.847088 0.680418 -9.730867 -5.089996 0.026631 0.134574 0.017661
-55.910332 61.929327 14.947523 175.143965 -49.658211 -0.916735 4.687719 26.353966 2.310777 0.669728 4.521310 0.310859 1.102108 7.127139 0.445368 3.645771 21.577014 1.850041 3.837844 13.597736 2.332226 6.308576 -10.550661 2.920245 2.637309 9.679809 3.836869 -31.079883 -22.503358 -12.752272 172.124825 -69.360512 -177.562729 19.613975 10.993784 -2.268705 -10.006929 4.075725 0.142008 17.750676 -21.815875 17.751308 -41.550593 -86.921290 50.464902 6.619826 -3.829230 31.714902 0.323873 -17.687103 -2.612222 -3.904708 64.107909 -7.262807 0.791316 -7.618157 7.851435 0.040699 -0.142909 0.033126 -3.767403 -15.283834 6.573035 25.954698 75.658078 26.873164 0.676262 -9.735267 -5.089792 0.028211 0.136809 0.017791
-55.914226 61.928804 14.946824 175.130489 -49.653823 -0.901221 4.648111 26.412632 2.373053 0.683589 4.500795 0.269536 1.096824 7.138784 0.453673 3.636570 21.561262 1.827913 3.829146 13.572518 2.287674 6.290931 -10.626517 2.784401 2.493996 9.604161 3.775958 -31.263333 -22.570601 -12.938592 176.351929 -69.751410 179.272550 20.867044 12.530371 5.116480 -10.034734 3.999676 0.235263 17.148497 -21.413553 18.434780 15.690360 -87.278086 -7.791283 6.592118 -2.884164 28.456539 0.331021 -17.693468 -2.614086 -3.895819 64.111822 -7.266987 0.790882 -7.622326 7.855971 0.039959 -0.141602 0.029893 -3.757451 -15.287405 6.564713 25.964349 75.656200 26.882182 0.675463 -9.737463 -5.090393 0.030791 0.138196 0.018387
-55.917789 61.928092 14.946666 175.112948 -49.642635 -0.886436 4.640958 26.427818 2.392102 0.686292 4.495928 0.262717 1.084364 7.171608 0.482821 3.617283 21.590942 1.872638 3.807558 13.511721 2.187491 6.275980 -10.696180 2.644564 2.353638 9.472594 3.641050 -31.578227 -22.703909 -13.085697 -179.405998 -70.146571 176.222509 22.290346 13.682978 12.559052 -10.041818 3.883002 0.200343 16.577367 -21.059704 19.118301 48.960289 -85.578462 -42.008406 6.430663 -1.917877 24.852334 0.339992 -17.706396 -2.611566 -3.901280 64.111508 -7.281492 0.789363 -7.621851 7.859735 0.042099 -0.140322 0.029945 -3.749227 -15.297034 6.556029 25.988093 75.652019 26.905528 0.682915 -9.739983 -5.090669 0.026004 0.140140 0.015578
-55.921024 61.925182 14.948777 175.098270 -49.608115 -0.877664 4.644422 26.402015 2.398566 0.680235 4.508129 0.274479 1.082288 7.178523 0.485397 3.600638 21.646970 1.941016 3.783667 13.451127 2.093131 6.252599 -10.753835 2.521540 2.218210 9.319636 3.509373 -32.001313 -22.886102 -13.197723 -175.488523 -70.545434 173.616327 23.741390 14.463807 19.702550 -10.084160 3.740380 0.261756 16.161231 -20.678834 19.645369 60.685597 -83.574900 -54.622430 6.237994 -0.845107 20.954691 0.341536 -17.742525 -2.604786 -3.905234 64.107061 -7.297941 0.792555 -7.622461 7.868293 0.041073 -0.134248 0.025847 -3.746806 -15.331222 6.556673 25.999853 75.647422 26.915545 0.683893 -9.743582 -5.092129 0.026708 0.145770 0.014796
-55.924118 61.924038 14.949668 175.088172 -49.581459 -0.872370 4.631514 26.416778 2.422625 0.667395 4.540681 0.297740 1.094918 7.135536 0.449125 3.587728 21.685788 1.982532 3.759959 13.414266 2.030175 6.221768 -10.801924 2.410214 2.086284 9.169276 3.401060 -32.496016 -23.104012 -13.283307 -171.925221 -70.909205 171.455899 25.280838 14.959781 26.334766 -10.114622 3.628149 0.351165 15.847551 -20.343769 20.095565 65.932174 -81.818957 -60.726505 6.045705 0.353424 16.879855 0.345160 -17.769449 -2.601322 -3.909731 64.103535 -7.307606 0.795135 -7.621533 7.874042 0.039790 -0.131761 0.022726 -3.749309 -15.356718 6.557176 25.999749 75.647310 26.910151 0.690322 -9.748782 -5.086588 0.027218 0.151177 0.008956
